<svg xmlns="http://www.w3.org/2000/svg" xmlns:xlink="http://www.w3.org/1999/xlink" id="Слой_1" x="0" y="0" version="1.1" viewBox="0 0 1176.7 1080" xml:space="preserve" style="enable-background:new 0 0 1176.7 1080"><style type="text/css">.st0{fill:#e9f4fe}.st1{fill:#8fbbef}.st2{fill:#fff}.st3{fill:#5584db}.st4{fill:#ffd69f}.st5{fill:#212b46}.st6{fill:#454e6b}.st7{fill:#3caf99}.st8{fill:#247b77}.st9{fill:#329587}.st10,.st11{fill:#fcafa7}.st11,.st12{clip-path:url(#SVGID_2_)}.st12,.st13{fill:#f78e81}.st14{fill:#39215b}.st15{fill:#3b215b}.st16{fill:#a7c6e3}.st17{fill:#fbe77d}.st18{fill:#73cf94}</style><g><circle cx="618.9" cy="506.5" r="461.5" class="st0"/><path d="M806.8,581.1H136.5c-9.7,0-17.6-7.9-17.6-17.6V181.9c0-9.7,7.9-17.6,17.6-17.6h670.2c9.7,0,17.6,7.9,17.6,17.6 v381.6C824.4,573.2,816.5,581.1,806.8,581.1z" class="st1"/><rect width="658.2" height="369.5" x="147.2" y="188.4" class="st2"/><rect width="77" height="138.7" x="431.4" y="572.4" class="st1"/><rect width="549.6" height="24.6" x="228" y="711" class="st3"/><path d="M769,765.7H16.8c-9.3,0-16.8-7.5-16.8-16.8l0,0c0-9.3,7.5-16.8,16.8-16.8H769c9.3,0,16.8,7.5,16.8,16.8l0,0 C785.7,758.2,778.2,765.7,769,765.7z" class="st4"/><path d="M0.7,754.5c2.2,6.6,8.5,11.4,15.9,11.4h752.2c7.4,0,13.7-4.8,15.9-11.4H0.7z" class="st2"/><g><rect width="42.1" height="2.6" x="185.9" y="751.9" class="st4"/><path d="M185.9,765.9v198.8c0,11.6,9.4,21.1,21.1,21.1s21.1-9.4,21.1-21.1V765.9H185.9z" class="st4"/></g><path d="M884.7,898.6H754c-81,0-146.6,54.7-146.6,135.7v0l270.5,2.9c85.6,0,144.5-37.9,144.5-135.7l-72.2-2.9H884.7z" class="st5"/><path d="M772.8,922.2H642.1c-81,0-146.6,54.7-146.6,135.7v0H957c85.6,0,144.5-37.9,144.5-135.7l0,0H772.8z" class="st6"/><path d="M1102.2,1080h-734c-9.3,0-16.8-7.5-16.8-16.8l0,0c0-9.3,7.5-16.8,16.8-16.8h734c9.3,0,16.8,7.5,16.8,16.8l0,0 C1119,1072.5,1111.5,1080,1102.2,1080z" class="st4"/><g><g><g><g><path d="M624.7,109.7c5.8-3.5,11.9-6.1,18.3-7.9l3.8-18.1l30.6-0.5l4.4,17.9c6.4,1.6,12.6,4,18.5,7.3l15.4-10.1 l22,21.2l-9.6,15.8c3.5,5.8,6.1,11.9,7.9,18.3l18.1,3.8l0.5,30.5l-17.9,4.4c-1.6,6.4-4,12.6-7.3,18.5l10.1,15.4l-21.2,22 l-15.8-9.6c-5.8,3.5-11.9,6.1-18.3,7.9l-3.8,18.1l-30.5,0.5l-4.4-17.9c-6.4-1.6-12.6-4-18.5-7.3L611.6,250l-22-21.2l9.6-15.8 c-3.5-5.8-6.1-11.9-7.9-18.3l-18.1-3.8l-0.5-30.5l17.9-4.4c1.6-6.4,4-12.6,7.3-18.5l-10.1-15.4l21.2-22L624.7,109.7 L624.7,109.7z" class="st7"/></g></g></g><g><g><g><g><g><polygon points="618.9 176.8 630.6 165 653.2 185.1 697.5 142.5 708.4 154.2 651.5 207.7" class="st2"/></g></g></g></g></g></g><path d="M1124,603.4c-41.4-109.1-103.4-123.5-143.8-126.4l14.2,32.8c-28.7,9.3,2.2,41.8,11.5,70.5l54.3,167 l-213.3,69.4l32,98.4l245.8-79.9c39.5-12.8,61.2-55.2,48.4-94.8C1152,674.9,1131.2,622.3,1124,603.4z" class="st8"/><path d="M772.8,922.2l-2.2-283.9c0-92.3,73.6-167.2,164.3-167.2h0c90.7,0,164.3,74.8,164.3,167.2l2.2,283.9H772.8z" class="st9"/><path d="M973.4,391.9l9.2,85.9c0,0-44.3,19.3-93.7,2.6l-6.7-63.8L973.4,391.9z" class="st10"/><g><path d="M498.7,702.5c-33.3-45.4-64.5-64.3-43.4-15.2S498.7,702.5,498.7,702.5z" class="st10"/><g><defs><path id="SVGID_1_" d="M395.2,677.5c-2.2,24.4-7.8,45.1,34.7,65.5c22.1,10.6,71.4,33.2,82,11.1c10.6-22.1,1.8-53.1-22.5-55.5 c-46.2-4.4-51.2-32.9-71.3-39.7C405.9,654.8,397,658,395.2,677.5z"/></defs><clipPath id="SVGID_2_"><use xlink:href="#SVGID_1_" style="overflow:visible"/></clipPath><path d="M395.2,677.5c-2.2,24.4-7.8,45.1,34.7,65.5c22.1,10.6,71.4,33.2,82,11.1c10.6-22.1,1.8-53.1-22.5-55.5 c-46.2-4.4-51.2-32.9-71.3-39.7C405.9,654.8,397,658,395.2,677.5z" class="st11"/><path d="M440.8,702.7l1.5-2.2c-32.1-21.9-41.2-40.5-41.3-40.7l-2.4,1.2C399,661.7,408.1,680.3,440.8,702.7z" class="st12"/><path d="M427.7,711.8l1.2-2.4c-20.4-10.5-34-30-34.2-30.2l-2.2,1.5C393.2,681.5,406.8,701,427.7,711.8z" class="st12"/><path d="M420.2,727.8c3.1,1.5,6.2,2.6,9.3,3.4l0.6-2.6c-17.8-4.2-36.4-24.2-36.6-24.4l-2,1.8 C392.2,706.7,405.2,720.6,420.2,727.8z" class="st12"/></g></g><path d="M900.8,606.5c0,0-48.2,273.1-104,288.9c-0.2,0.1-0.4,0.1-0.6,0.2c-13.2,4.9-24-6.1-23.8-20.8l-0.5-45.9 L900.8,606.5z" class="st8"/><polygon points="887.5 467.4 965.8 428.1 883.9 440.6" class="st13"/><path d="M824.4,399.4c19.4,52.8,96.1,53.7,146.1,22.2s63.9-108.7,32.4-158.6s-107.6-58.6-157.6-27.1 S804,344,824.4,399.4z" class="st10"/><path d="M809.1,292c29.4,0.7,46.9,49.2,57.6,49.6c10.7,0.4,6.6,3.2,6.6,3.2l-12.8-60L845.1,262l-22.4,0 c0,0-4,3.3-4.9,4.7C814.2,272.3,809.1,292,809.1,292z" class="st13"/><path d="M885.2,406.6c9.9,32.9,51.9,44.1,83.5,18.9c0,0,18.6,22.6,64.5-3.1c45.9-25.7-0.2-47.6-0.2-47.6 s32.2-3.2,35.3-24.9c3.1-21.7-19.9-31-19.9-31s18.4-7,15.1-40.8s-29.1-27.2-29.1-27.2s11.8-23.1-8.1-43.8 c-19.9-20.7-49.2,3.7-49.2,3.7s-14.7-44.8-62.9-33.1c-38.6,9.4-37.6,29.6-37.6,29.6s-22.5-29.4-64.1-10.2 c-52.2,24,29.6,54.1,29.6,54.1S872.4,364.1,885.2,406.6z" class="st14"/><circle cx="878.2" cy="361.3" r="29.4" class="st10"/><path d="M839,238.5c0,0-55.4-15.5-40.7,16.7c14.7,32.2,46.8-0.4,46.8-0.4L839,238.5z" class="st14"/><path d="M817,269.5c0,0,30.2-2.5,36.1,21.1c7.1,28.4,14.8-40.7,14.8-40.7l-19.3-12.1l-17.7,8.3L817,269.5z" class="st14"/><path d="M872.1,379.1c-5-1.8-7.9-6-7.6-11.2c0.2-4.4,2.5-8.1,5.5-8.8c1.4-0.3,4.1-0.3,6.6,3.9c3,5.2,7.7,5.1,10.8,3.4 c3.8-2,6.2-6.9,3.5-12.4c-1.9-3.8-4.4-6-7.3-6.5c-6.1-1-12.5,5.4-12.6,5.5l-1.9-1.8c0.3-0.3,7.5-7.4,14.9-6.2 c3.8,0.6,6.9,3.3,9.2,7.9c3.4,6.9,0.3,13.2-4.6,15.9c-4.3,2.3-10.6,1.9-14.3-4.4c-0.7-1.2-2.1-3.1-3.7-2.7 c-1.8,0.4-3.4,3.3-3.5,6.4c-0.1,1.9,0.3,6.7,5.9,8.6L872.1,379.1z" class="st13"/><path d="M502,703.1c0,0-32.2,22.6-27,57.8c0,0,10.1,1.9,17.4,8.9L502,703.1L502,703.1z" class="st13"/><path d="M860.4,530.7L860.4,530.7c-32.1-9.8-66,8.3-75.7,40.4l-53.1,174.6l-188.2-54.5c-20-5.4-46.2,8.8-52.1,28.7 l-4.8,16.4c-5.9,19.9,7.5,46.4,27.3,52.7l251.2,74.4c26.7,8.4,55.3-6.3,63.8-33l72-223.9C910.5,574.4,892.4,540.5,860.4,530.7z" class="st7"/><path d="M772.8,922.2l326.3,31.6c0,0,3.8-12.9,2.3-31.6H772.8z" class="st15"/><path d="M370.4,90.7c-4.8,0-9.6-1.2-14-3.6c-14.1-7.8-19.3-25.5-11.5-39.7c3.8-6.8,10-11.8,17.4-14 c7.5-2.2,15.4-1.3,22.2,2.5c6.8,3.8,11.8,10,14,17.4c2.2,7.5,1.3,15.4-2.5,22.2C390.7,85.3,380.7,90.7,370.4,90.7z M370.5,37.4 c-2.3,0-4.5,0.3-6.8,1c-6.2,1.8-11.3,5.9-14.4,11.5c-6.4,11.6-2.1,26.3,9.5,32.7c11.6,6.4,26.3,2.1,32.7-9.5 c3.1-5.6,3.8-12.1,2-18.3c-1.8-6.2-5.9-11.3-11.5-14.4C378.5,38.4,374.5,37.4,370.5,37.4z" class="st7"/><circle cx="454.9" cy="119.4" r="8.2" class="st7"/><circle cx="468.8" cy="12.8" r="12.8" class="st7"/><path d="M746.2,772.8c-3.4-19.7-15-26.1-15.1-26.1l1.6-3c0.5,0.3,13.2,7.3,16.9,28.6L746.2,772.8z" class="st9"/><path d="M878.3,463.6c-4.2-0.2,3.9,16.3,3.9,16.3s37.2,16.8,76,12.6c39.8-4.3,29.8-34.6,29.8-34.6 S955,467.4,878.3,463.6z" class="st2"/><path d="M434.8,574.3H135.6V181.1h299.2V574.3z M139.5,570.4h291.4V185H139.5V570.4z" class="st1"/><rect width="203.8" height="27.8" x="185.2" y="217.1" class="st0"/><rect width="103.3" height="27.8" x="467.1" y="233" class="st0"/><rect width="308.3" height="27.8" x="467.1" y="301.2" class="st0"/><path d="M231.8,321.2h-31.7c-3.9,0-7.1-3.2-7.1-7.1v-31.7c0-3.9,3.2-7.1,7.1-7.1h31.7c3.9,0,7.1,3.2,7.1,7.1v31.7 C238.9,318,235.7,321.2,231.8,321.2z" class="st16"/><path d="M231.8,395.6h-31.7c-3.9,0-7.1-3.2-7.1-7.1v-31.7c0-3.9,3.2-7.1,7.1-7.1h31.7c3.9,0,7.1,3.2,7.1,7.1v31.7 C238.9,392.5,235.7,395.6,231.8,395.6z" class="st17"/><path d="M231.8,470.1h-31.7c-3.9,0-7.1-3.2-7.1-7.1v-31.7c0-3.9,3.2-7.1,7.1-7.1h31.7c3.9,0,7.1,3.2,7.1,7.1V463 C238.9,466.9,235.7,470.1,231.8,470.1z" class="st18"/><rect width="34.1" height="3.9" x="257.8" y="291.9" class="st1"/><rect width="102.2" height="3.9" x="257.8" y="306.6" class="st1"/><rect width="34.1" height="3.9" x="257.8" y="363.4" class="st1"/><rect width="102.2" height="3.9" x="257.8" y="378.1" class="st1"/><rect width="34.1" height="3.9" x="257.8" y="434.9" class="st1"/><rect width="102.2" height="3.9" x="257.8" y="449.6" class="st1"/><rect width="52.1" height="3.9" x="467.1" y="219.7" class="st1"/><rect width="187.1" height="3.9" x="467.1" y="289.3" class="st1"/><rect width="222.2" height="3.9" x="467.1" y="361.2" class="st1"/><rect width="172.2" height="3.9" x="467.1" y="431.4" class="st1"/><rect width="294.2" height="3.9" x="467.1" y="468.1" class="st1"/><circle cx="474.2" cy="385.2" r="7.1" class="st0"/><circle cx="474.2" cy="411.6" r="7.1" class="st0"/><circle cx="474.2" cy="487" r="7.1" class="st0"/><circle cx="474.2" cy="513.4" r="7.1" class="st0"/><circle cx="474.2" cy="453.1" r="7.1" class="st0"/><circle cx="818.4" cy="331.9" r="5.3" class="st14"/><path d="M829.4,322.8c-8.5-8.3-19.1-4.1-19.2-4l-0.7-1.6c0.1,0,11.7-4.7,21,4.4L829.4,322.8z" class="st14"/><path d="M820.9,391.6C820.8,391.6,820.8,391.6,820.9,391.6l0-1.7c0.1,0,5.2,0,12.1-2.5l0.6,1.6 C826.7,391.5,821.5,391.6,820.9,391.6z" class="st14"/><polygon points="809.7 333.3 793.5 371.2 817 375" class="st10"/></g></svg>